<svg width="28" height="28" viewBox="0 0 28 28" fill="none" xmlns="http://www.w3.org/2000/svg">
<path fill-rule="evenodd" clip-rule="evenodd" d="M6.38187 12.2847C6.21801 12.1206 6.12598 11.8982 6.12598 11.6663C6.12598 11.4345 6.21801 11.2121 6.38187 11.048L13.3819 4.04801C13.5459 3.88415 13.7683 3.79211 14.0002 3.79211C14.2321 3.79211 14.4545 3.88415 14.6185 4.04801L21.6185 11.048C21.7045 11.1281 21.7735 11.2247 21.8213 11.332C21.8691 11.4394 21.8948 11.5552 21.8969 11.6727C21.899 11.7902 21.8774 11.9069 21.8333 12.0159C21.7893 12.1248 21.7238 12.2238 21.6407 12.3069C21.5577 12.39 21.4587 12.4555 21.3497 12.4995C21.2408 12.5435 21.1241 12.5651 21.0066 12.563C20.8891 12.561 20.7732 12.5352 20.6659 12.4874C20.5586 12.4396 20.462 12.3706 20.3819 12.2847L14.8752 6.77801L14.8752 23.333C14.8752 23.5651 14.783 23.7876 14.6189 23.9517C14.4548 24.1158 14.2323 24.208 14.0002 24.208C13.7681 24.208 13.5456 24.1158 13.3815 23.9517C13.2174 23.7876 13.1252 23.5651 13.1252 23.333V6.77801L7.61854 12.2847C7.45448 12.4485 7.23208 12.5406 7.00021 12.5406C6.76833 12.5406 6.54594 12.4485 6.38187 12.2847Z" fill="white"/>
</svg>
