<svg width="20" height="20" viewBox="0 0 20 20" fill="none" xmlns="http://www.w3.org/2000/svg">
<path fill-rule="evenodd" clip-rule="evenodd" d="M11.2247 4.55876C11.3419 4.44172 11.5007 4.37598 11.6663 4.37598C11.832 4.37598 11.9908 4.44172 12.108 4.55876L17.108 9.55876C17.2251 9.67595 17.2908 9.8348 17.2908 10.0004C17.2908 10.1661 17.2251 10.3249 17.108 10.4421L12.108 15.4421C12.0508 15.5035 11.9818 15.5528 11.9051 15.5869C11.8285 15.6211 11.7457 15.6394 11.6618 15.6409C11.5779 15.6424 11.4945 15.627 11.4167 15.5955C11.3389 15.5641 11.2682 15.5173 11.2088 15.458C11.1495 15.3986 11.1027 15.3279 11.0712 15.2501C11.0398 15.1723 11.0244 15.0889 11.0258 15.005C11.0273 14.9211 11.0457 14.8383 11.0799 14.7616C11.114 14.685 11.1633 14.616 11.2247 14.5588L15.158 10.6254H3.33301C3.16725 10.6254 3.00828 10.5596 2.89107 10.4424C2.77386 10.3252 2.70801 10.1662 2.70801 10.0004C2.70801 9.83467 2.77386 9.6757 2.89107 9.55849C3.00828 9.44127 3.16725 9.37543 3.33301 9.37543H15.158L11.2247 5.44209C11.1076 5.32491 11.0419 5.16605 11.0419 5.00043C11.0419 4.8348 11.1076 4.67595 11.2247 4.55876Z" fill="white"/>
</svg>
