<svg width="24" height="25" viewBox="0 0 24 25" fill="none" xmlns="http://www.w3.org/2000/svg">
<path fill-rule="evenodd" clip-rule="evenodd" d="M13.47 5.97032C13.6106 5.82987 13.8012 5.75098 14 5.75098C14.1988 5.75098 14.3894 5.82987 14.53 5.97032L20.53 11.9703C20.6705 12.1109 20.7493 12.3016 20.7493 12.5003C20.7493 12.6991 20.6705 12.8897 20.53 13.0303L14.53 19.0303C14.4613 19.104 14.3785 19.1631 14.2865 19.2041C14.1945 19.2451 14.0952 19.2671 13.9945 19.2689C13.8938 19.2707 13.7938 19.2522 13.7004 19.2144C13.607 19.1767 13.5222 19.1206 13.451 19.0494C13.3797 18.9781 13.3236 18.8933 13.2859 18.7999C13.2482 18.7065 13.2296 18.6065 13.2314 18.5058C13.2332 18.4051 13.2552 18.3058 13.2962 18.2138C13.3372 18.1218 13.3963 18.039 13.47 17.9703L18.19 13.2503H4C3.80109 13.2503 3.61032 13.1713 3.46967 13.0306C3.32902 12.89 3.25 12.6992 3.25 12.5003C3.25 12.3014 3.32902 12.1106 3.46967 11.97C3.61032 11.8293 3.80109 11.7503 4 11.7503H18.19L13.47 7.03032C13.3295 6.88969 13.2507 6.69907 13.2507 6.50032C13.2507 6.30157 13.3295 6.11094 13.47 5.97032Z" fill="#27397D"/>
</svg>
