<svg width="28" height="28" viewBox="0 0 28 28" fill="none" xmlns="http://www.w3.org/2000/svg">
<path fill-rule="evenodd" clip-rule="evenodd" d="M12.768 1.45898H15.232C17.3763 1.45898 19.075 1.45898 20.4038 1.63748C21.7712 1.82182 22.8783 2.20915 23.7522 3.08182C23.9067 3.24769 23.9909 3.46708 23.9869 3.69376C23.9829 3.92045 23.891 4.13673 23.7307 4.29704C23.5704 4.45736 23.3541 4.54919 23.1274 4.55319C22.9008 4.55719 22.6814 4.47304 22.5155 4.31848C22.0208 3.82615 21.3442 3.52982 20.1705 3.37232C18.9723 3.21132 17.3915 3.20898 15.1667 3.20898H12.8333C10.6085 3.20898 9.02883 3.21132 7.82833 3.37232C6.65583 3.52982 5.97917 3.82615 5.48567 4.31965C4.99217 4.81315 4.69583 5.48982 4.53833 6.66232C4.37733 7.86282 4.375 9.44248 4.375 11.6673V16.334C4.375 18.5588 4.37733 20.1397 4.53833 21.339C4.69583 22.5115 4.99217 23.1882 5.48567 23.6817C5.97917 24.1752 6.65583 24.4715 7.8295 24.629C9.02883 24.79 10.6085 24.7923 12.8333 24.7923H15.1667C17.3915 24.7923 18.9723 24.79 20.1717 24.629C21.3442 24.4715 22.0208 24.1752 22.5143 23.6817C23.3263 22.8697 23.5725 21.6085 23.6145 18.6545C23.6179 18.4224 23.7134 18.2012 23.8799 18.0395C23.9623 17.9595 24.0597 17.8964 24.1665 17.854C24.2733 17.8116 24.3874 17.7906 24.5023 17.7923C24.6172 17.794 24.7307 17.8183 24.8362 17.8638C24.9417 17.9094 25.0372 17.9752 25.1173 18.0577C25.1974 18.1401 25.2604 18.2375 25.3028 18.3443C25.3452 18.4511 25.3662 18.5652 25.3645 18.6802C25.3237 21.5117 25.1405 23.5312 23.7522 24.9195C22.8783 25.7922 21.7712 26.1795 20.4038 26.3638C19.0738 26.5423 17.3763 26.5423 15.232 26.5423H12.768C10.6237 26.5423 8.925 26.5423 7.59617 26.3638C6.22883 26.1795 5.12167 25.7922 4.24783 24.9195C3.37517 24.0457 2.98783 22.9385 2.8035 21.5712C2.625 20.2412 2.625 18.5437 2.625 16.3993V11.602C2.625 9.45765 2.625 7.75899 2.8035 6.43015C2.98783 5.06282 3.37517 3.95565 4.24783 3.08182C5.12167 2.20915 6.22883 1.82182 7.59617 1.63748C8.92617 1.45898 10.6237 1.45898 12.768 1.45898ZM21.133 8.22098C21.4246 7.91569 21.7744 7.67175 22.1616 7.50352C22.5489 7.33528 22.9658 7.24612 23.388 7.2413C23.8102 7.23647 24.2291 7.31607 24.6201 7.47541C25.0111 7.63475 25.3663 7.87062 25.6648 8.16917C25.9634 8.46772 26.1992 8.82292 26.3586 9.21392C26.5179 9.60491 26.5975 10.0238 26.5927 10.446C26.5879 10.8682 26.4987 11.2851 26.3305 11.6724C26.1622 12.0596 25.9183 12.4093 25.613 12.701L20.0667 18.2508C19.836 18.494 19.5905 18.7227 19.3317 18.9357C19.0626 19.1457 18.7732 19.3245 18.4637 19.4723C18.2023 19.5972 17.927 19.6882 17.5233 19.8223L15.092 20.6332C14.8287 20.7212 14.5461 20.7342 14.2759 20.6706C14.0057 20.6069 13.7585 20.4692 13.5622 20.2729C13.3659 20.0766 13.2282 19.8295 13.1646 19.5593C13.101 19.289 13.1139 19.0064 13.202 18.7432L13.9965 16.3632L14.0128 16.313C14.1482 15.9082 14.2392 15.634 14.364 15.3727C14.5106 15.0646 14.6906 14.7735 14.9007 14.5047C15.0792 14.276 15.2833 14.0718 15.5855 13.7697L15.6217 13.7335L21.133 8.22098ZM24.3763 9.45765C24.2446 9.32586 24.0882 9.22132 23.916 9.14999C23.7439 9.07866 23.5593 9.04195 23.373 9.04195C23.1867 9.04195 23.0021 9.07866 22.83 9.14999C22.6578 9.22132 22.5014 9.32586 22.3697 9.45765L22.1573 9.66998L22.197 9.79482C22.3067 10.1098 22.5155 10.5298 22.9098 10.9242C23.2588 11.2754 23.6898 11.5341 24.164 11.6767L24.3763 11.4643C24.5081 11.3326 24.6127 11.1762 24.684 11.004C24.7553 10.8319 24.792 10.6473 24.792 10.461C24.792 10.2746 24.7553 10.0901 24.684 9.91796C24.6127 9.74581 24.5081 9.58939 24.3763 9.45765ZM22.827 13.0137C22.4004 12.791 22.0108 12.5037 21.672 12.162C21.3303 11.8232 21.043 11.4336 20.8203 11.007L16.8583 14.969C16.5072 15.3202 16.3835 15.4462 16.2797 15.5792C16.1474 15.7487 16.0351 15.9303 15.9425 16.124C15.8702 16.2768 15.813 16.4437 15.6555 16.915L15.1888 18.315L15.519 18.6452L16.919 18.1785C17.3903 18.021 17.5572 17.9638 17.71 17.8915C17.9029 17.7982 18.0845 17.6858 18.2548 17.5543C18.3878 17.4505 18.5138 17.3268 18.865 16.9757L22.827 13.0137ZM8.45833 10.5007C8.45833 10.2686 8.55052 10.046 8.71462 9.88193C8.87871 9.71784 9.10127 9.62565 9.33333 9.62565H16.9167C17.1487 9.62565 17.3713 9.71784 17.5354 9.88193C17.6995 10.046 17.7917 10.2686 17.7917 10.5007C17.7917 10.7327 17.6995 10.9553 17.5354 11.1194C17.3713 11.2835 17.1487 11.3757 16.9167 11.3757H9.33333C9.10127 11.3757 8.87871 11.2835 8.71462 11.1194C8.55052 10.9553 8.45833 10.7327 8.45833 10.5007ZM8.45833 15.1673C8.45833 14.9353 8.55052 14.7127 8.71462 14.5486C8.87871 14.3845 9.10127 14.2923 9.33333 14.2923H12.25C12.4821 14.2923 12.7046 14.3845 12.8687 14.5486C13.0328 14.7127 13.125 14.9353 13.125 15.1673C13.125 15.3994 13.0328 15.6219 12.8687 15.786C12.7046 15.9501 12.4821 16.0423 12.25 16.0423H9.33333C9.10127 16.0423 8.87871 15.9501 8.71462 15.786C8.55052 15.6219 8.45833 15.3994 8.45833 15.1673ZM8.45833 19.834C8.45833 19.6019 8.55052 19.3794 8.71462 19.2153C8.87871 19.0512 9.10127 18.959 9.33333 18.959H11.0833C11.3154 18.959 11.538 19.0512 11.7021 19.2153C11.8661 19.3794 11.9583 19.6019 11.9583 19.834C11.9583 20.066 11.8661 20.2886 11.7021 20.4527C11.538 20.6168 11.3154 20.709 11.0833 20.709H9.33333C9.10127 20.709 8.87871 20.6168 8.71462 20.4527C8.55052 20.2886 8.45833 20.066 8.45833 19.834Z" fill="white"/>
</svg>
