<svg width="168" height="29" viewBox="0 0 168 29" fill="none" xmlns="http://www.w3.org/2000/svg">
<path d="M27.5263 25.2169C27.1574 23.645 26.1055 22.812 24.4841 22.812H9.34073C9.2266 22.8121 9.11717 22.8576 9.0365 22.9384L4.88738 27.0934C4.8087 27.174 4.76465 27.2822 4.76465 27.3948C4.76465 27.5075 4.8087 27.6157 4.88738 27.6963C5.10681 27.9472 5.37694 28.1486 5.6799 28.2871C5.98285 28.4257 6.31173 28.4983 6.64477 28.5H24.9922C25.3121 28.4915 25.626 28.4118 25.9113 28.2667H25.934C27.0052 27.6639 27.5522 26.8925 27.5522 25.9785V25.3303C27.5501 25.2913 27.5413 25.2529 27.5263 25.2169Z" fill="#00DE9B"/>
<path d="M5.71971 20.4778V3.38453C5.72977 2.94587 5.63429 2.51123 5.44134 2.11728C5.44196 2.10973 5.44196 2.10214 5.44134 2.09459C4.81989 1.03801 4.01717 0.5 3.05262 0.5H2.70305C2.48395 0.503921 2.26631 0.536607 2.0557 0.597227H2.00715C0.353166 1.27136 0.00683594 2.37332 0.00683594 3.19006V23.1387C0.0136686 23.4282 0.0740247 23.7139 0.184854 23.9814C0.184854 24.0008 0.184853 24.0138 0.204273 24.03C0.377965 24.3644 0.595692 24.674 0.851625 24.9504C0.891364 24.9923 0.938994 25.0259 0.991771 25.0493C1.04455 25.0727 1.10143 25.0853 1.15912 25.0866C1.27326 25.0865 1.3827 25.041 1.46338 24.9602L5.61613 20.8019C5.65383 20.7573 5.68239 20.7058 5.70016 20.6502C5.71793 20.5946 5.72458 20.536 5.71971 20.4778Z" fill="#00DE9B"/>
<path d="M43.6474 7.43083H43.903C44.353 7.4596 44.7745 7.66117 45.0796 7.99354C45.3848 8.32591 45.55 8.7634 45.5408 9.21478V18.0546H54.329C54.7794 18.0171 55.2273 18.1524 55.5818 18.4331C55.9363 18.7138 56.1711 19.119 56.2384 19.5665V20.0225C56.2132 20.3255 56.1051 20.6156 55.9262 20.8611C55.7472 21.1066 55.5042 21.2981 55.2238 21.4145C55.0572 21.4979 54.8746 21.5443 54.6885 21.5505H43.5036C43.1797 21.5309 42.8685 21.4177 42.6076 21.2246C42.3467 21.0315 42.1473 20.7668 42.0336 20.4625C41.9692 20.3021 41.934 20.1314 41.9297 19.9586V9.07879C41.9384 8.71112 42.0662 8.35622 42.2939 8.06763C42.5216 7.77904 42.8368 7.5724 43.192 7.47883C43.3403 7.43871 43.494 7.42251 43.6474 7.43083Z" fill="white"/>
<path d="M61.1612 7.4312H72.1784C72.5023 7.44886 72.8149 7.55719 73.0804 7.74387C73.3459 7.93054 73.5538 8.18806 73.6804 8.48716C73.7395 8.64638 73.7745 8.81358 73.7842 8.98317V9.38316C73.7601 9.69598 73.6473 9.9954 73.4591 10.2462C73.2708 10.4971 73.015 10.6889 72.7216 10.7991C72.5171 10.887 72.2971 10.9332 72.0745 10.9351H63.0387V12.7431H70.0053C70.3777 12.7078 70.7517 12.7909 71.0744 12.9804C71.397 13.17 71.6519 13.4564 71.8029 13.7991C71.8856 13.9746 71.9318 14.1651 71.9387 14.3591V14.607C71.93 14.9747 71.8022 15.3296 71.5745 15.6182C71.3468 15.9068 71.0316 16.1134 70.6764 16.207C70.5495 16.2464 70.4178 16.268 70.2849 16.271H63.0387V18.071H71.8269C72.2777 18.0315 72.7265 18.1661 73.0815 18.4471C73.4365 18.7282 73.6707 19.1346 73.7363 19.5829V20.0229C73.7128 20.3264 73.6055 20.6173 73.4263 20.8631C73.2471 21.1089 73.0031 21.3 72.7216 21.4149C72.5576 21.4974 72.3778 21.5437 72.1944 21.5509H61.0094C60.6867 21.5308 60.3767 21.4172 60.1172 21.2241C59.8577 21.031 59.6597 20.7665 59.5474 20.4629C59.4809 20.3028 59.4431 20.1322 59.4355 19.9589V9.07917C59.4455 8.71185 59.5739 8.35759 59.8013 8.06925C60.0288 7.78092 60.3433 7.57395 60.6979 7.4792C60.8487 7.43823 61.0052 7.42202 61.1612 7.4312Z" fill="white"/>
<path d="M78.6255 7.43076H87.0381C87.6811 7.45318 88.3112 7.61668 88.8841 7.90973C89.457 8.20278 89.9587 8.61823 90.3536 9.12672C90.8901 9.8162 91.2024 10.6539 91.2484 11.5267V12.1106C91.2183 12.7341 91.0525 13.3436 90.7627 13.8963C90.4729 14.449 90.0661 14.9316 89.5707 15.3106C88.8152 15.8848 87.8985 16.2067 86.9502 16.2306H80.5189V19.8465C80.511 20.2312 80.3768 20.6025 80.1371 20.9033C79.8974 21.204 79.5655 21.4174 79.1927 21.5104C79.1104 21.5197 79.0273 21.5197 78.945 21.5104H78.5536C78.2297 21.4908 77.9185 21.3776 77.6576 21.1845C77.3967 20.9914 77.1973 20.7267 77.0835 20.4225C77.0171 20.2623 76.9792 20.0917 76.9717 19.9185V9.07872C76.9817 8.7114 77.11 8.35714 77.3374 8.06881C77.5649 7.78047 77.8794 7.5735 78.234 7.47876C78.3617 7.44541 78.4934 7.42927 78.6255 7.43076ZM80.5189 10.9347V12.7746H87.7092V10.9347H80.5189Z" fill="white"/>
<path d="M96.1131 7.43066H96.3768C96.6956 7.44363 97.0048 7.54364 97.2709 7.71989C97.5371 7.89615 97.75 8.14194 97.8867 8.43064C98.006 8.67993 98.0636 8.95434 98.0545 9.23062V19.8864C98.0434 20.275 97.9042 20.649 97.6585 20.95C97.4128 21.2511 97.0745 21.4621 96.6963 21.5503C96.6113 21.5593 96.5256 21.5593 96.4407 21.5503H96.0652C95.736 21.5324 95.4188 21.4203 95.1512 21.2275C94.8837 21.0347 94.6768 20.7692 94.5552 20.4624C94.4887 20.3022 94.4509 20.1316 94.4434 19.9584V9.07862C94.4553 8.70708 94.5882 8.34962 94.8219 8.06075C95.0555 7.77189 95.3771 7.56748 95.7376 7.47866C95.8603 7.44695 95.9864 7.43083 96.1131 7.43066Z" fill="white"/>
<path d="M106.181 7.43066H113.923C114.278 7.43191 114.624 7.54551 114.911 7.75527C115.198 7.96502 115.411 8.26019 115.521 8.59863C115.53 8.68103 115.53 8.76422 115.521 8.84662V9.38262C115.494 9.69252 115.382 9.98897 115.198 10.239C115.013 10.489 114.762 10.6827 114.474 10.7986C114.26 10.8809 114.033 10.9269 113.803 10.9346H104.839V12.7105H110.2C112.365 12.7105 113.987 13.3985 115.049 14.7745C115.336 15.1564 115.51 15.6108 115.553 16.0864V18.1904C115.553 18.9904 115.001 19.7904 113.899 20.5904C112.965 21.1813 111.888 21.5075 110.783 21.5343H102.794C102.5 21.5167 102.215 21.4225 101.969 21.2612C101.722 21.0998 101.522 20.8769 101.388 20.6143C101.306 20.4497 101.26 20.2699 101.252 20.0864V19.7024C101.262 19.3351 101.39 18.9808 101.618 18.6925C101.845 18.4041 102.16 18.1972 102.514 18.1024C102.725 18.0424 102.943 18.0128 103.161 18.0144H111.989V16.2384H106.333C104.841 16.2711 103.39 15.7431 102.267 14.7585C101.968 14.5021 101.724 14.1878 101.549 13.8344C101.375 13.4811 101.274 13.0961 101.252 12.7025V10.9186C101.252 9.75593 102.051 8.76395 103.649 7.94264C104.453 7.61407 105.312 7.44039 106.181 7.43066Z" fill="white"/>
<path d="M123.662 7.43162H128.064C128.843 7.41749 129.616 7.56036 130.338 7.85173C131.06 8.14309 131.716 8.577 132.267 9.12758C132.701 9.5927 132.968 10.1895 133.026 10.8235V18.1754C132.973 18.6273 132.823 19.0624 132.585 19.4505C132.348 19.8386 132.03 20.1705 131.652 20.4233C130.571 21.1685 129.289 21.5675 127.977 21.5673H123.854C122.355 21.6035 120.897 21.0786 119.764 20.0953C119.466 19.8377 119.223 19.5231 119.049 19.17C118.875 18.817 118.773 18.4325 118.749 18.0394V10.9595C118.749 9.79157 119.548 8.79959 121.146 7.98361C121.942 7.64255 122.796 7.45527 123.662 7.43162ZM122.176 10.9275V18.0634H129.598V10.9275H122.176Z" fill="white"/>
<path d="M137.875 7.43083H143.555C145.325 7.47939 147.015 8.18011 148.301 9.39878C149.056 10.1218 149.65 10.9971 150.042 11.9667C150.309 12.6488 150.46 13.3707 150.49 14.1027V14.8626C150.423 16.6201 149.678 18.2831 148.412 19.5026C147.559 20.3214 146.528 20.9319 145.401 21.2865C144.844 21.4474 144.27 21.5414 143.691 21.5665H137.795C137.471 21.5469 137.16 21.4337 136.899 21.2406C136.638 21.0475 136.438 20.7828 136.325 20.4785C136.258 20.3184 136.22 20.1478 136.213 19.9745V9.07879C136.223 8.71147 136.351 8.35721 136.579 8.06888C136.806 7.78054 137.121 7.57358 137.475 7.47883C137.606 7.44496 137.74 7.42882 137.875 7.43083ZM139.76 10.9348V18.0546H142.9C143.499 18.0535 144.092 17.9295 144.642 17.69C145.191 17.4506 145.686 17.101 146.096 16.6626C146.611 16.0995 146.909 15.3703 146.934 14.6067V14.3587C146.902 13.7885 146.725 13.236 146.42 12.7532C146.115 12.2704 145.693 11.8732 145.193 11.5987C144.436 11.1521 143.571 10.9224 142.692 10.9348H139.76Z" fill="white"/>
<path d="M155.369 7.43139H166.386C166.709 7.44958 167.021 7.55823 167.285 7.74493C167.549 7.93163 167.755 8.18886 167.88 8.48734C167.941 8.64644 167.979 8.81351 167.992 8.98335V9.38334C167.966 9.6956 167.853 9.99415 167.665 10.2447C167.477 10.4952 167.222 10.6874 166.93 10.7993C166.723 10.888 166.5 10.9343 166.275 10.9353H157.255V12.7433H164.229C164.601 12.706 164.975 12.7883 165.297 12.9782C165.618 13.1681 165.871 13.4557 166.019 13.7992C166.105 13.9734 166.152 14.1648 166.155 14.3592V14.6072C166.148 14.9742 166.022 15.3289 165.795 15.6176C165.569 15.9063 165.255 16.1133 164.9 16.2072C164.771 16.2467 164.636 16.2682 164.501 16.2712H157.255V18.0711H166.083C166.533 18.0336 166.981 18.1689 167.336 18.4496C167.69 18.7304 167.925 19.1356 167.992 19.5831V20.0231C167.967 20.326 167.859 20.6161 167.68 20.8616C167.501 21.1072 167.258 21.2986 166.978 21.4151C166.811 21.4984 166.629 21.5448 166.442 21.5511H155.257C154.934 21.5315 154.622 21.4182 154.361 21.2251C154.101 21.032 153.901 20.7673 153.787 20.4631C153.723 20.3026 153.688 20.132 153.684 19.9591V9.07935C153.692 8.71272 153.818 8.35862 154.045 8.07016C154.271 7.78171 154.584 7.57443 154.938 7.47938C155.079 7.44309 155.224 7.42694 155.369 7.43139Z" fill="white"/>
</svg>
