<svg width="432" height="576" viewBox="0 0 432 576" fill="none" xmlns="http://www.w3.org/2000/svg">
<g clip-path="url(#clip0_38_137)">
<path d="M0 24C0 10.7452 10.7452 0 24 0H408C421.255 0 432 10.7452 432 24V552C432 565.255 421.255 576 408 576H24C10.7452 576 0 565.255 0 552V24Z" fill="#051942"/>
<path d="M208.592 317.593C261.383 264.802 346.974 264.802 399.765 317.593C452.555 370.384 452.555 455.974 399.765 508.765C346.974 561.556 261.383 561.556 208.592 508.765C155.802 455.974 155.802 370.384 208.592 317.593ZM360.371 356.988C329.337 325.954 279.022 325.954 247.988 356.988C216.955 388.021 216.955 438.336 247.988 469.37C279.022 500.403 329.337 500.403 360.371 469.37C391.404 438.336 391.404 388.021 360.371 356.988Z" fill="url(#paint0_linear_38_137)" fill-opacity="0.5"/>
<path d="M313.937 377.832C280.662 435.465 206.966 455.212 149.332 421.938C91.6975 388.662 71.9505 314.965 105.226 257.331C138.501 199.697 212.197 179.95 269.831 213.225C327.465 246.5 347.212 320.197 313.937 377.832ZM174.162 378.929C208.043 398.491 251.366 386.882 270.927 353.001C290.488 319.12 278.88 275.797 244.999 256.236C211.118 236.675 167.795 248.284 148.234 282.164C128.673 316.045 140.281 359.368 174.162 378.929Z" fill="url(#paint1_linear_38_137)" fill-opacity="0.5"/>
<path d="M245.283 728.283C182.995 790.572 82.0044 790.572 19.7158 728.283C-42.5724 665.995 -42.5724 565.005 19.7158 502.717C82.0044 440.428 182.995 440.428 245.283 502.717C307.571 565.005 307.571 665.995 245.283 728.283ZM66.2031 681.803C102.82 718.42 162.188 718.42 198.805 681.803C235.422 645.186 235.422 585.818 198.805 549.201C162.188 512.584 102.82 512.584 66.2031 549.201C29.5862 585.818 29.5862 645.186 66.2031 681.803Z" fill="url(#paint2_linear_38_137)" fill-opacity="0.5"/>
<path d="M432.782 209.785C412.014 230.553 378.342 230.553 357.574 209.785C336.806 189.016 336.806 155.344 357.574 134.576C378.342 113.808 412.014 113.808 432.782 134.576C453.55 155.344 453.55 189.016 432.782 209.785ZM373.074 194.287C385.283 206.495 405.077 206.495 417.286 194.287C429.495 182.078 429.495 162.283 417.286 150.074C405.077 137.865 385.283 137.865 373.074 150.074C360.865 162.283 360.865 182.078 373.074 194.287Z" fill="url(#paint3_linear_38_137)" fill-opacity="0.5"/>
</g>
<defs>
<linearGradient id="paint0_linear_38_137" x1="168.998" y1="487.5" x2="428.998" y2="358.999" gradientUnits="userSpaceOnUse">
<stop stop-color="#052A52"/>
<stop offset="1" stop-color="#008CF0"/>
</linearGradient>
<linearGradient id="paint1_linear_38_137" x1="308.828" y1="222.401" x2="114.606" y2="393.029" gradientUnits="userSpaceOnUse">
<stop stop-color="#052A52"/>
<stop offset="1" stop-color="#008CF0"/>
</linearGradient>
<linearGradient id="paint2_linear_38_137" x1="292" y1="527.807" x2="-14.7774" y2="679.428" gradientUnits="userSpaceOnUse">
<stop stop-color="#052A52"/>
<stop offset="1" stop-color="#008CF0"/>
</linearGradient>
<linearGradient id="paint3_linear_38_137" x1="448.359" y1="142.942" x2="346.074" y2="193.495" gradientUnits="userSpaceOnUse">
<stop stop-color="#052A52"/>
<stop offset="1" stop-color="#008CF0"/>
</linearGradient>
<clipPath id="clip0_38_137">
<path d="M0 24C0 10.7452 10.7452 0 24 0H408C421.255 0 432 10.7452 432 24V552C432 565.255 421.255 576 408 576H24C10.7452 576 0 565.255 0 552V24Z" fill="white"/>
</clipPath>
</defs>
</svg>
