<svg width="18" height="13" viewBox="0 0 18 13" fill="none" xmlns="http://www.w3.org/2000/svg">
<path d="M1 12.0518C0.71667 12.0518 0.479337 11.9558 0.288004 11.7638C0.0966702 11.5718 0.000670115 11.3344 3.44827e-06 11.0518C-0.000663218 10.7691 0.0953369 10.5318 0.288004 10.3398C0.48067 10.1478 0.718004 10.0518 1 10.0518H17C17.2833 10.0518 17.521 10.1478 17.713 10.3398C17.905 10.5318 18.0007 10.7691 18 11.0518C17.9993 11.3344 17.9033 11.5721 17.712 11.7648C17.5207 11.9574 17.2833 12.0531 17 12.0518H1ZM1 7.05176C0.71667 7.05176 0.479337 6.95576 0.288004 6.76376C0.0966702 6.57176 0.000670115 6.33442 3.44827e-06 6.05176C-0.000663218 5.76909 0.0953369 5.53176 0.288004 5.33976C0.48067 5.14776 0.718004 5.05176 1 5.05176H17C17.2833 5.05176 17.521 5.14776 17.713 5.33976C17.905 5.53176 18.0007 5.76909 18 6.05176C17.9993 6.33442 17.9033 6.57209 17.712 6.76476C17.5207 6.95742 17.2833 7.05309 17 7.05176H1ZM1 2.05176C0.71667 2.05176 0.479337 1.95576 0.288004 1.76376C0.0966702 1.57176 0.000670115 1.33442 3.44827e-06 1.05176C-0.000663218 0.769091 0.0953369 0.531758 0.288004 0.339758C0.48067 0.147758 0.718004 0.0517578 1 0.0517578H17C17.2833 0.0517578 17.521 0.147758 17.713 0.339758C17.905 0.531758 18.0007 0.769091 18 1.05176C17.9993 1.33442 17.9033 1.57209 17.712 1.76476C17.5207 1.95742 17.2833 2.05309 17 2.05176H1Z" fill="#6B7280"/>
</svg>
