<svg width="17" height="17" viewBox="0 0 17 17" fill="none" xmlns="http://www.w3.org/2000/svg">
<path d="M12.9871 8.68122L9.6538 8.67888L9.65146 12.0122C9.65133 12.189 9.58098 12.3585 9.45586 12.4835C9.33075 12.6084 9.16113 12.6785 8.98432 12.6784C8.80751 12.6783 8.63799 12.6079 8.51305 12.4828C8.38812 12.3577 8.318 12.1881 8.31812 12.0113L8.32047 8.67794L4.98714 8.6756C4.81032 8.67547 4.6408 8.60512 4.51587 8.48C4.39093 8.35489 4.32081 8.18527 4.32094 8.00846C4.32106 7.83165 4.39142 7.66213 4.51653 7.5372C4.64164 7.41226 4.81126 7.34214 4.98807 7.34226L8.32141 7.34461L8.32375 4.01128C8.32387 3.83447 8.39423 3.66495 8.51934 3.54001C8.64446 3.41507 8.81407 3.34495 8.99088 3.34508C9.1677 3.3452 9.33721 3.41556 9.46215 3.54067C9.58709 3.66578 9.65721 3.8354 9.65708 4.01221L9.65474 7.34555L12.9881 7.34789C13.1649 7.34801 13.3344 7.41837 13.4593 7.54348C13.5843 7.6686 13.6544 7.83821 13.6543 8.01503C13.6541 8.19184 13.5838 8.36136 13.4587 8.48629C13.3336 8.61123 13.1639 8.68135 12.9871 8.68122Z" fill="white"/>
</svg>
