<svg width="32" height="33" viewBox="0 0 32 33" fill="none" xmlns="http://www.w3.org/2000/svg">
<path fill-rule="evenodd" clip-rule="evenodd" d="M11.2202 9.29004C11.2204 9.02504 11.3257 8.77094 11.5131 8.58355C11.7005 8.39617 11.9546 8.29083 12.2196 8.29066L23.5333 8.29066C23.7983 8.29083 24.0524 8.39617 24.2398 8.58355C24.4272 8.77094 24.5325 9.02504 24.5327 9.29004L24.5327 20.6037C24.5374 20.738 24.5151 20.8717 24.467 20.9971C24.4189 21.1225 24.3461 21.2369 24.2528 21.3335C24.1595 21.4302 24.0477 21.507 23.9241 21.5595C23.8005 21.612 23.6676 21.639 23.5333 21.639C23.399 21.639 23.2661 21.612 23.1425 21.5595C23.0189 21.507 22.9071 21.4302 22.8138 21.3335C22.7206 21.2369 22.6477 21.1225 22.5996 20.9971C22.5515 20.8717 22.5292 20.738 22.5339 20.6037L22.5339 11.7036L9.15548 25.0821C8.96795 25.2696 8.71359 25.375 8.44837 25.375C8.18316 25.375 7.9288 25.2696 7.74127 25.0821C7.55373 24.8946 7.44838 24.6402 7.44838 24.375C7.44838 24.1098 7.55373 23.8554 7.74127 23.6679L21.1197 10.2894L12.2196 10.2894C11.9546 10.2893 11.7005 10.1839 11.5131 9.99652C11.3257 9.80914 11.2204 9.55504 11.2202 9.29004Z" fill="#1F2937"/>
</svg>
