<svg width="168" height="29" viewBox="0 0 168 29" fill="none" xmlns="http://www.w3.org/2000/svg">
<path d="M27.5268 25.4537C27.1578 23.8818 26.106 23.0488 24.4845 23.0488H9.34122C9.22709 23.0489 9.11765 23.0944 9.03699 23.1752L4.88787 27.3302C4.80919 27.4108 4.76514 27.519 4.76514 27.6317C4.76514 27.7443 4.80919 27.8525 4.88787 27.9331C5.1073 28.184 5.37743 28.3854 5.68038 28.5239C5.98334 28.6625 6.31221 28.7351 6.64526 28.7369H24.9927C25.3125 28.7284 25.6265 28.6486 25.9118 28.5035H25.9345C27.0057 27.9007 27.5527 27.1293 27.5527 26.2153V25.5671C27.5506 25.5281 27.5418 25.4897 27.5268 25.4537Z" fill="#00DE9B"/>
<path d="M5.7202 20.7141V3.62086C5.73025 3.1822 5.63478 2.74755 5.44183 2.35361C5.44245 2.34606 5.44245 2.33847 5.44183 2.33092C4.82037 1.27434 4.01766 0.736328 3.0531 0.736328H2.70354C2.48444 0.740249 2.2668 0.772935 2.05619 0.833556H2.00764C0.353655 1.50769 0.00732422 2.60965 0.00732422 3.42639V23.375C0.0141569 23.6645 0.074513 23.9502 0.185342 24.2177C0.185342 24.2371 0.185341 24.2501 0.204762 24.2663C0.378453 24.6007 0.59618 24.9103 0.852113 25.1868C0.891852 25.2287 0.939482 25.2623 0.992259 25.2856C1.04504 25.309 1.10192 25.3217 1.15961 25.3229C1.27375 25.3228 1.38319 25.2773 1.46386 25.1965L5.61662 21.0382C5.65432 20.9937 5.68288 20.9421 5.70065 20.8865C5.71842 20.8309 5.72506 20.7723 5.7202 20.7141Z" fill="#00DE9B"/>
<path d="M43.6483 7.66618H43.904C44.354 7.69495 44.7755 7.89652 45.0806 8.22889C45.3857 8.56126 45.5509 8.99875 45.5418 9.45013V18.2899H54.3299C54.7804 18.2524 55.2282 18.3877 55.5828 18.6684C55.9373 18.9492 56.172 19.3544 56.2394 19.8019V20.2579C56.2141 20.5608 56.1061 20.8509 55.9271 21.0964C55.7482 21.342 55.5052 21.5334 55.2247 21.6499C55.0582 21.7332 54.8756 21.7796 54.6895 21.7859H43.5045C43.1807 21.7663 42.8695 21.653 42.6086 21.4599C42.3477 21.2668 42.1483 21.0021 42.0345 20.6979C41.9701 20.5374 41.935 20.3668 41.9307 20.1939V9.31414C41.9394 8.94647 42.0672 8.59157 42.2949 8.30298C42.5226 8.0144 42.8377 7.80776 43.193 7.71418C43.3412 7.67406 43.495 7.65786 43.6483 7.66618Z" fill="#1F2937"/>
<path d="M61.1622 7.66656H72.1794C72.5033 7.68422 72.8158 7.79254 73.0813 7.97922C73.3469 8.1659 73.5547 8.42341 73.6813 8.72251C73.7405 8.88174 73.7755 9.04893 73.7852 9.21852V9.61851C73.7611 9.93133 73.6483 10.2308 73.46 10.4816C73.2718 10.7324 73.016 10.9242 72.7226 11.0345C72.5181 11.1223 72.2981 11.1686 72.0755 11.1705H63.0397V12.9784H70.0063C70.3787 12.9432 70.7527 13.0262 71.0754 13.2158C71.398 13.4053 71.6529 13.6917 71.8039 14.0344C71.8866 14.2099 71.9328 14.4005 71.9397 14.5944V14.8424C71.931 15.2101 71.8031 15.5649 71.5755 15.8535C71.3478 16.1421 71.0326 16.3488 70.6774 16.4424C70.5505 16.4818 70.4187 16.5033 70.2859 16.5063H63.0397V18.3063H71.8278C72.2787 18.2668 72.7275 18.4014 73.0825 18.6825C73.4375 18.9636 73.6717 19.3699 73.7373 19.8183V20.2583C73.7138 20.5617 73.6065 20.8526 73.4273 21.0985C73.2481 21.3443 73.0041 21.5353 72.7226 21.6502C72.5586 21.7327 72.3788 21.7791 72.1953 21.7862H61.0104C60.6877 21.7661 60.3777 21.6526 60.1182 21.4595C59.8586 21.2663 59.6607 21.0019 59.5484 20.6982C59.4819 20.5381 59.444 20.3675 59.4365 20.1943V9.31452C59.4465 8.9472 59.5748 8.59294 59.8023 8.3046C60.0298 8.01627 60.3443 7.8093 60.6988 7.71455C60.8497 7.67358 61.0062 7.65737 61.1622 7.66656Z" fill="#1F2937"/>
<path d="M78.6255 7.66611H87.0381C87.6811 7.68853 88.3112 7.85203 88.8841 8.14508C89.457 8.43813 89.9587 8.85358 90.3536 9.36207C90.8901 10.0516 91.2024 10.8892 91.2484 11.762V12.346C91.2183 12.9695 91.0525 13.5789 90.7627 14.1316C90.4729 14.6843 90.0661 15.167 89.5707 15.5459C88.8152 16.1202 87.8985 16.442 86.9502 16.4659H80.5189V20.0818C80.511 20.4665 80.3768 20.8379 80.1371 21.1386C79.8974 21.4394 79.5655 21.6527 79.1927 21.7458C79.1104 21.7551 79.0273 21.7551 78.945 21.7458H78.5536C78.2297 21.7262 77.9185 21.613 77.6576 21.4199C77.3967 21.2268 77.1973 20.9621 77.0835 20.6578C77.0171 20.4977 76.9792 20.3271 76.9717 20.1538V9.31407C76.9817 8.94675 77.11 8.59249 77.3374 8.30416C77.5649 8.01582 77.8794 7.80885 78.234 7.71411C78.3617 7.68076 78.4934 7.66462 78.6255 7.66611ZM80.5189 11.17V13.01H87.7092V11.17H80.5189Z" fill="#1F2937"/>
<path d="M96.1136 7.66602H96.3773C96.6961 7.67898 97.0053 7.77899 97.2714 7.95524C97.5376 8.1315 97.7505 8.37729 97.8872 8.66599C98.0065 8.91528 98.0641 9.18969 98.055 9.46598V20.1217C98.0439 20.5103 97.9047 20.8844 97.659 21.1854C97.4133 21.4864 97.075 21.6975 96.6968 21.7857C96.6118 21.7947 96.5261 21.7947 96.4412 21.7857H96.0657C95.7365 21.7677 95.4193 21.6557 95.1517 21.4629C94.8841 21.2701 94.6773 21.0045 94.5557 20.6977C94.4892 20.5376 94.4514 20.367 94.4438 20.1937V9.31398C94.4558 8.94243 94.5887 8.58497 94.8223 8.2961C95.056 8.00724 95.3776 7.80283 95.7381 7.71401C95.8608 7.6823 95.9869 7.66618 96.1136 7.66602Z" fill="#1F2937"/>
<path d="M106.182 7.66602H113.923C114.279 7.66726 114.624 7.78087 114.911 7.99062C115.198 8.20037 115.412 8.49554 115.521 8.83398C115.531 8.91638 115.531 8.99957 115.521 9.08197V9.61797C115.495 9.92787 115.383 10.2243 115.198 10.4743C115.013 10.7243 114.763 10.9181 114.475 11.0339C114.26 11.1163 114.033 11.1622 113.804 11.1699H104.84V12.9459H110.2C112.365 12.9459 113.987 13.6339 115.05 15.0098C115.336 15.3918 115.51 15.8461 115.553 16.3218V18.4258C115.553 19.2257 115.002 20.0257 113.899 20.8257C112.965 21.4166 111.888 21.7429 110.784 21.7697H102.794C102.5 21.752 102.216 21.6579 101.969 21.4965C101.723 21.3352 101.522 21.1122 101.388 20.8497C101.307 20.6851 101.261 20.5053 101.252 20.3217V19.9377C101.262 19.5704 101.391 19.2162 101.618 18.9278C101.846 18.6395 102.16 18.4325 102.515 18.3378C102.725 18.2778 102.943 18.2481 103.162 18.2498H111.99V16.4738H106.334C104.841 16.5064 103.39 15.9785 102.267 14.9939C101.968 14.7375 101.724 14.4231 101.55 14.0698C101.375 13.7164 101.274 13.3314 101.252 12.9379V11.1539C101.252 9.99128 102.051 8.99931 103.649 8.17799C104.454 7.84942 105.313 7.67574 106.182 7.66602Z" fill="#1F2937"/>
<path d="M123.663 7.66697H128.065C128.844 7.65284 129.617 7.79571 130.339 8.08708C131.061 8.37845 131.717 8.81235 132.268 9.36293C132.702 9.82805 132.969 10.4248 133.027 11.0589V18.4107C132.974 18.8627 132.824 19.2977 132.586 19.6858C132.349 20.074 132.03 20.4059 131.653 20.6587C130.572 21.4039 129.29 21.8028 127.978 21.8026H123.855C122.356 21.8388 120.898 21.314 119.765 20.3307C119.467 20.0731 119.224 19.7585 119.05 19.4054C118.876 19.0523 118.774 18.6679 118.75 18.2747V11.1949C118.75 10.0269 119.549 9.03494 121.147 8.21896C121.943 7.8779 122.797 7.69062 123.663 7.66697ZM122.177 11.1629V18.2987H129.599V11.1629H122.177Z" fill="#1F2937"/>
<path d="M137.876 7.66618H143.556C145.326 7.71474 147.016 8.41546 148.302 9.63413C149.057 10.3572 149.651 11.2324 150.043 12.2021C150.31 12.8842 150.461 13.6061 150.491 14.338V15.098C150.424 16.8554 149.679 18.5184 148.413 19.7379C147.56 20.5568 146.529 21.1673 145.401 21.5219C144.845 21.6828 144.271 21.7768 143.692 21.8018H137.796C137.472 21.7822 137.161 21.669 136.9 21.4759C136.639 21.2828 136.439 21.0181 136.326 20.7139C136.259 20.5537 136.221 20.3832 136.214 20.2099V9.31414C136.224 8.94682 136.352 8.59257 136.58 8.30423C136.807 8.01589 137.122 7.80893 137.476 7.71418C137.607 7.68031 137.741 7.66417 137.876 7.66618ZM139.761 11.1701V18.2899H142.901C143.5 18.2889 144.093 18.1648 144.643 17.9254C145.192 17.686 145.687 17.3363 146.097 16.898C146.612 16.3349 146.91 15.6056 146.935 14.842V14.594C146.903 14.0239 146.726 13.4714 146.421 12.9886C146.116 12.5058 145.694 12.1085 145.194 11.8341C144.437 11.3875 143.572 11.1578 142.693 11.1701H139.761Z" fill="#1F2937"/>
<path d="M155.37 7.66674H166.387C166.71 7.68493 167.021 7.79358 167.285 7.98028C167.549 8.16698 167.756 8.42421 167.881 8.72269C167.942 8.8818 167.979 9.04886 167.993 9.2187V9.61869C167.967 9.93095 167.853 10.2295 167.665 10.48C167.477 10.7305 167.223 10.9228 166.93 11.0347C166.723 11.1234 166.5 11.1696 166.275 11.1707H157.255V12.9786H164.23C164.602 12.9414 164.975 13.0237 165.297 13.2136C165.619 13.4034 165.872 13.691 166.019 14.0346C166.106 14.2088 166.152 14.4001 166.155 14.5946V14.8426C166.148 15.2096 166.022 15.5643 165.796 15.853C165.569 16.1417 165.255 16.3487 164.901 16.4425C164.771 16.482 164.637 16.5035 164.502 16.5065H157.255V18.3065H166.083C166.534 18.269 166.982 18.4043 167.336 18.685C167.691 18.9657 167.925 19.3709 167.993 19.8185V20.2584C167.968 20.5614 167.86 20.8515 167.681 21.097C167.502 21.3425 167.259 21.534 166.978 21.6504C166.812 21.7338 166.629 21.7802 166.443 21.7864H155.258C154.934 21.7668 154.623 21.6536 154.362 21.4605C154.101 21.2674 153.902 21.0027 153.788 20.6984C153.724 20.538 153.688 20.3673 153.684 20.1945V9.3147C153.692 8.94807 153.819 8.59397 154.045 8.30552C154.271 8.01706 154.585 7.80978 154.938 7.71473C155.079 7.67844 155.224 7.66229 155.37 7.66674Z" fill="#1F2937"/>
</svg>
