<svg width="31" height="30" viewBox="0 0 31 30" fill="none" xmlns="http://www.w3.org/2000/svg">
<g clip-path="url(#clip0_42_3575)">
<path d="M8.3515 25.7266L12.8232 25.7266L12.8232 27.4035C12.8232 27.7 12.7055 27.9844 12.4958 28.194C12.2862 28.4037 12.0018 28.5215 11.7053 28.5215L9.46944 28.5215C9.17294 28.5215 8.88859 28.4037 8.67894 28.194C8.46928 27.9844 8.3515 27.7 8.3515 27.4035L8.3515 25.7266Z" fill="#D0D7DF"/>
<path d="M8.3515 24.0508L12.8232 24.0508L12.8232 6.16382L8.35148 6.16382L8.3515 24.0508Z" fill="white"/>
<path d="M8.3515 25.7266L12.8232 25.7266L12.8232 24.0497L8.3515 24.0497L8.3515 25.7266Z" fill="#C4B5FD"/>
<path d="M10.5874 1.69037L12.8232 6.16211L8.3515 6.16211L10.5874 1.69037Z" fill="#FDE0BA"/>
<path d="M9.62444 3.6198C9.90585 3.8201 10.2427 3.92773 10.5881 3.92773C10.9335 3.92773 11.2703 3.8201 11.5518 3.6198L10.5881 1.69192L9.62444 3.6198Z" fill="#4C6681"/>
<path d="M8.35277 24.0508L9.4707 24.0508L9.47068 6.16382L8.35275 6.16382L8.35277 24.0508Z" fill="#C4B5FD"/>
<path d="M8.35277 25.7266L9.4707 25.7266L9.4707 24.0497L8.35277 24.0497L8.35277 25.7266Z" fill="#C4B5FD"/>
<path d="M21.2082 28.5215C21.5045 28.5206 21.7883 28.4025 21.9978 28.1931C22.2072 27.9836 22.3253 27.6998 22.3262 27.4035L22.3261 2.80898C22.3253 2.51275 22.2072 2.22892 21.9977 2.01946C21.7883 1.80999 21.5044 1.69193 21.2082 1.69104L15.0596 1.69104L15.0596 28.5215L21.2082 28.5215Z" fill="white"/>
<path d="M15.0595 15.666L19.5312 15.666L19.5312 14.5481L15.0595 14.5481L15.0595 15.666Z" fill="#C4B5FD"/>
<path d="M15.0597 20.1367L17.8545 20.1367L17.8545 19.0188L15.0597 19.0188L15.0597 20.1367Z" fill="#C4B5FD"/>
<path d="M15.0595 24.6074L19.5312 24.6074L19.5312 23.4895L15.0595 23.4895L15.0595 24.6074Z" fill="#C4B5FD"/>
<path d="M15.0597 11.1934L17.8545 11.1934L17.8545 10.0754L15.0597 10.0754L15.0597 11.1934Z" fill="#C4B5FD"/>
<path d="M15.0595 6.7207L19.5312 6.7207L19.5312 5.60277L15.0595 5.60277L15.0595 6.7207Z" fill="#C4B5FD"/>
</g>
<defs>
<clipPath id="clip0_42_3575">
<rect width="26.8304" height="26.8304" fill="white" transform="matrix(-1 -8.74228e-08 -1.09269e-06 -1 29.0342 28.5215)"/>
</clipPath>
</defs>
</svg>
