<svg width="16" height="22" viewBox="0 0 16 22" fill="none" xmlns="http://www.w3.org/2000/svg">
<path fill-rule="evenodd" clip-rule="evenodd" d="M0.381873 9.28467C0.218014 9.12061 0.125977 8.89822 0.125977 8.66634C0.125977 8.43446 0.218014 8.21207 0.381873 8.04801L7.38187 1.04801C7.54594 0.884148 7.76833 0.79211 8.00021 0.79211C8.23208 0.79211 8.45448 0.884148 8.61854 1.04801L15.6185 8.04801C15.7045 8.12811 15.7735 8.22471 15.8213 8.33205C15.8691 8.43938 15.8948 8.55524 15.8969 8.67273C15.899 8.79022 15.8774 8.90692 15.8333 9.01587C15.7893 9.12482 15.7238 9.2238 15.6407 9.30688C15.5577 9.38997 15.4587 9.45548 15.3497 9.49948C15.2408 9.54349 15.1241 9.5651 15.0066 9.56303C14.8891 9.56096 14.7732 9.53524 14.6659 9.48742C14.5586 9.43959 14.462 9.37064 14.3819 9.28467L8.87521 3.77801L8.87521 20.333C8.87521 20.5651 8.78302 20.7876 8.61892 20.9517C8.45483 21.1158 8.23227 21.208 8.00021 21.208C7.76814 21.208 7.54558 21.1158 7.38149 20.9517C7.21739 20.7876 7.12521 20.5651 7.12521 20.333L7.12521 3.77801L1.61854 9.28467C1.45448 9.44853 1.23208 9.54057 1.00021 9.54057C0.768331 9.54057 0.545936 9.44853 0.381873 9.28467Z" fill="white"/>
</svg>
