<svg width="24" height="24" viewBox="0 0 24 24" fill="none" xmlns="http://www.w3.org/2000/svg">
<path fill-rule="evenodd" clip-rule="evenodd" d="M12.0004 21.6004C14.5465 21.6004 16.9883 20.589 18.7886 18.7886C20.589 16.9883 21.6004 14.5465 21.6004 12.0004C21.6004 9.45431 20.589 7.01252 18.7886 5.21217C16.9883 3.41182 14.5465 2.40039 12.0004 2.40039C9.45431 2.40039 7.01252 3.41182 5.21217 5.21217C3.41182 7.01252 2.40039 9.45431 2.40039 12.0004C2.40039 14.5465 3.41182 16.9883 5.21217 18.7886C7.01252 20.589 9.45431 21.6004 12.0004 21.6004ZM16.6288 9.82959C16.6983 9.73394 16.7483 9.62553 16.7759 9.51056C16.8035 9.39559 16.8081 9.27631 16.7896 9.15954C16.7712 9.04276 16.7298 8.93076 16.6681 8.82995C16.6063 8.72914 16.5252 8.64149 16.4296 8.57199C16.3339 8.5025 16.2255 8.45252 16.1106 8.42492C15.9956 8.39732 15.8763 8.39264 15.7595 8.41113C15.6428 8.42963 15.5308 8.47095 15.43 8.53273C15.3291 8.59451 15.2415 8.67554 15.172 8.77119L10.9924 14.5192L8.73639 12.2632C8.65333 12.1773 8.55399 12.1088 8.44416 12.0616C8.33433 12.0145 8.21623 11.9898 8.09672 11.9888C7.97722 11.9878 7.85872 12.0106 7.74814 12.0559C7.63755 12.1012 7.5371 12.1681 7.45263 12.2526C7.36817 12.3372 7.30139 12.4377 7.25619 12.5483C7.21099 12.659 7.18827 12.7775 7.18937 12.897C7.19046 13.0165 7.21534 13.1346 7.26256 13.2444C7.30978 13.3541 7.37839 13.4534 7.46439 13.5364L10.4644 16.5364C10.5563 16.6284 10.6671 16.6994 10.7892 16.7444C10.9112 16.7895 11.0415 16.8076 11.1712 16.7974C11.3009 16.7873 11.4268 16.7491 11.5403 16.6856C11.6539 16.6221 11.7523 16.5348 11.8288 16.4296L16.6288 9.82959Z" fill="#D1D5DB"/>
</svg>
