<svg width="728" height="480" viewBox="0 0 728 480" fill="none" xmlns="http://www.w3.org/2000/svg">
<g clip-path="url(#clip0_26_752)">
<path d="M0 24C0 10.7452 10.7452 0 24 0H704C717.255 0 728 10.7452 728 24V456C728 469.255 717.255 480 704 480H24C10.7452 480 0 469.255 0 456V24Z" fill="#051942"/>
<path d="M201.689 321.479C159.284 248.032 184.449 154.116 257.896 111.711C331.343 69.3063 425.259 94.4711 467.664 167.918C510.068 241.365 484.904 335.282 411.457 377.686C338.01 420.091 244.093 394.926 201.689 321.479ZM289.53 166.519C246.353 191.447 231.559 246.657 256.487 289.834C281.415 333.01 336.626 347.804 379.802 322.876C422.979 297.948 437.773 242.738 412.845 199.561C387.916 156.384 332.706 141.591 289.53 166.519Z" fill="url(#paint0_linear_26_752)" fill-opacity="0.5"/>
<path d="M298.755 223.6C352.211 277.057 352.212 363.728 298.755 417.185C245.298 470.642 158.626 470.642 105.169 417.185C51.7121 363.728 51.7124 277.057 105.169 223.6C158.626 170.143 245.298 170.143 298.755 223.6ZM258.866 377.285C290.291 345.86 290.291 294.91 258.866 263.484C227.441 232.059 176.491 232.059 145.065 263.484C113.64 294.91 113.64 345.86 145.065 377.285C176.491 408.71 227.441 408.71 258.866 377.285Z" fill="url(#paint1_linear_26_752)" fill-opacity="0.5"/>
<path d="M663.114 401.964C713.148 488.625 683.455 599.439 596.795 649.473C510.134 699.506 399.32 669.814 349.286 583.153C299.253 496.492 328.945 385.679 415.606 335.645C502.267 285.611 613.08 315.303 663.114 401.964ZM559.465 584.808C610.41 555.395 627.865 490.252 598.452 439.308C569.039 388.363 503.896 370.908 452.952 400.321C402.007 429.734 384.552 494.877 413.965 545.821C443.378 596.766 508.521 614.22 559.465 584.808Z" fill="url(#paint2_linear_26_752)" fill-opacity="0.5"/>
<path d="M149.307 43.7833C165.99 72.6778 156.09 109.625 127.195 126.308C98.3007 142.99 61.353 133.09 44.6707 104.195C27.9885 75.3008 37.8887 38.3532 66.7831 21.6709C95.6776 4.98865 132.625 14.8887 149.307 43.7833ZM114.746 104.745C131.732 94.9376 137.552 73.218 127.745 56.2322C117.938 39.2464 96.2188 33.4268 79.233 43.2334C62.247 53.0402 56.4273 74.7597 66.2341 91.7457C76.0409 108.732 97.7605 114.551 114.746 104.745Z" fill="url(#paint3_linear_26_752)" fill-opacity="0.5"/>
</g>
<defs>
<linearGradient id="paint0_linear_26_752" x1="376.482" y1="414.879" x2="311.925" y2="91.8079" gradientUnits="userSpaceOnUse">
<stop stop-color="#052A52"/>
<stop offset="1" stop-color="#008CF0"/>
</linearGradient>
<linearGradient id="paint1_linear_26_752" x1="126.703" y1="183.508" x2="256.826" y2="446.789" gradientUnits="userSpaceOnUse">
<stop stop-color="#052A52"/>
<stop offset="1" stop-color="#008CF0"/>
</linearGradient>
<linearGradient id="paint2_linear_26_752" x1="456.873" y1="291.762" x2="533.044" y2="672.957" gradientUnits="userSpaceOnUse">
<stop stop-color="#052A52"/>
<stop offset="1" stop-color="#008CF0"/>
</linearGradient>
<linearGradient id="paint3_linear_26_752" x1="80.5426" y1="7.03925" x2="105.94" y2="134.137" gradientUnits="userSpaceOnUse">
<stop stop-color="#052A52"/>
<stop offset="1" stop-color="#008CF0"/>
</linearGradient>
<clipPath id="clip0_26_752">
<path d="M0 24C0 10.7452 10.7452 0 24 0H704C717.255 0 728 10.7452 728 24V456C728 469.255 717.255 480 704 480H24C10.7452 480 0 469.255 0 456V24Z" fill="white"/>
</clipPath>
</defs>
</svg>
