<svg width="328" height="240" viewBox="0 0 328 240" fill="none" xmlns="http://www.w3.org/2000/svg">
<g clip-path="url(#clip0_42_1775)">
<path d="M0 24C0 10.7452 10.7452 0 24 0H304C317.255 0 328 10.7452 328 24V216C328 229.255 317.255 240 304 240H24C10.7452 240 0 229.255 0 216V24Z" fill="url(#paint0_linear_42_1775)"/>
<rect x="11.7842" y="349.755" width="103.087" height="240.21" rx="51.5435" transform="rotate(-135 11.7842 349.755)" fill="url(#paint1_linear_42_1775)" fill-opacity="0.5"/>
<rect x="47.4736" y="202.263" width="242.203" height="242.203" rx="121.101" transform="rotate(-45 47.4736 202.263)" fill="url(#paint2_linear_42_1775)" fill-opacity="0.5"/>
<rect x="73.0225" y="78.623" width="54.7026" height="54.7026" rx="27.3513" transform="rotate(-45 73.0225 78.623)" fill="url(#paint3_linear_42_1775)" fill-opacity="0.5"/>
</g>
<defs>
<linearGradient id="paint0_linear_42_1775" x1="164" y1="0" x2="164" y2="240" gradientUnits="userSpaceOnUse">
<stop stop-color="#051942"/>
<stop offset="1" stop-color="#044369"/>
</linearGradient>
<linearGradient id="paint1_linear_42_1775" x1="63.3276" y1="349.755" x2="63.3276" y2="589.965" gradientUnits="userSpaceOnUse">
<stop stop-color="#052A52" stop-opacity="0"/>
<stop offset="1" stop-color="#066560"/>
</linearGradient>
<linearGradient id="paint2_linear_42_1775" x1="168.575" y1="202.263" x2="168.575" y2="444.465" gradientUnits="userSpaceOnUse">
<stop stop-color="#052F56"/>
<stop offset="1" stop-color="#26DED4"/>
</linearGradient>
<linearGradient id="paint3_linear_42_1775" x1="100.374" y1="78.623" x2="100.374" y2="133.326" gradientUnits="userSpaceOnUse">
<stop stop-color="#052A52"/>
<stop offset="1" stop-color="#066560"/>
</linearGradient>
<clipPath id="clip0_42_1775">
<path d="M0 24C0 10.7452 10.7452 0 24 0H304C317.255 0 328 10.7452 328 24V216C328 229.255 317.255 240 304 240H24C10.7452 240 0 229.255 0 216V24Z" fill="white"/>
</clipPath>
</defs>
</svg>
