<svg width="20" height="20" viewBox="0 0 20 20" fill="none" xmlns="http://www.w3.org/2000/svg">
<path d="M16.666 3.33203H3.33268C2.41602 3.33203 1.67435 4.08203 1.67435 4.9987L1.66602 14.9987C1.66602 15.9154 2.41602 16.6654 3.33268 16.6654H16.666C17.5827 16.6654 18.3327 15.9154 18.3327 14.9987V4.9987C18.3327 4.08203 17.5827 3.33203 16.666 3.33203ZM15.8327 14.9987H4.16602C3.70768 14.9987 3.33268 14.6237 3.33268 14.1654V6.66536L9.11601 10.282C9.65768 10.6237 10.341 10.6237 10.8827 10.282L16.666 6.66536V14.1654C16.666 14.6237 16.291 14.9987 15.8327 14.9987ZM9.99935 9.16536L3.33268 4.9987H16.666L9.99935 9.16536Z" fill="#9CA3AF"/>
</svg>
