<svg width="20" height="21" viewBox="0 0 20 21" fill="none" xmlns="http://www.w3.org/2000/svg">
<path d="M1.22518 18.3912C1.10804 18.5086 1.04232 18.6677 1.04248 18.8335C1.04264 18.9993 1.10866 19.1583 1.22601 19.2754C1.34337 19.3925 1.50246 19.4582 1.66827 19.4581C1.83408 19.4579 1.99304 19.3919 2.11018 19.2746L1.22518 18.3912ZM5.98768 15.3929C6.10148 15.275 6.1644 15.1171 6.1629 14.9532C6.1614 14.7893 6.09559 14.6326 5.97966 14.5168C5.86372 14.4009 5.70693 14.3353 5.54306 14.3339C5.37918 14.3326 5.22134 14.3957 5.10351 14.5096L5.98768 15.3929ZM12.8827 5.06622L15.451 7.63789L16.3352 6.75456L13.7668 4.18289L12.8827 5.06622ZM7.72435 16.2496L4.29351 12.8154L3.41018 13.6996L6.84018 17.1321L7.72435 16.2496ZM14.4193 12.4104L12.8218 13.0104L13.2618 14.1804L14.8593 13.5812L14.4193 12.4104ZM7.53018 7.69956L8.10935 6.12039L6.93518 5.68956L6.35685 7.26956L7.53018 7.69956ZM5.03685 9.99623C5.63018 9.83289 6.08101 9.71789 6.45018 9.45289L5.71935 8.43789C5.57601 8.54206 5.38851 8.60289 4.70518 8.79122L5.03685 9.99623ZM6.35685 7.26956C6.11268 7.93622 6.03601 8.11789 5.92101 8.25289L6.87268 9.06373C7.16685 8.71789 7.31768 8.27706 7.53018 7.69956L6.35685 7.26956ZM6.45018 9.45289C6.60629 9.34011 6.74713 9.21039 6.87268 9.06373L5.92101 8.25289C5.86128 8.32226 5.79359 8.38435 5.71935 8.43789L6.45018 9.45289ZM12.8218 13.0104C12.2477 13.2271 11.8102 13.3804 11.4668 13.6771L12.2852 14.6237C12.4185 14.5071 12.5993 14.4287 13.2618 14.1804L12.8218 13.0104ZM11.7535 15.8329C11.941 15.1504 12.0018 14.9637 12.1052 14.8196L11.0893 14.0912C10.8252 14.4604 10.711 14.9104 10.5477 15.5021L11.7535 15.8329ZM11.4668 13.6779C11.3246 13.8001 11.1988 13.9384 11.0893 14.0912L12.106 14.8196C12.1577 14.7462 12.2174 14.6815 12.2852 14.6237L11.4668 13.6779ZM4.29351 12.8146C3.75518 12.2754 3.39018 11.9087 3.15351 11.6112C2.91518 11.3121 2.89101 11.1829 2.89018 11.1254L1.64018 11.1329C1.64351 11.6179 1.88435 12.0246 2.17518 12.3896C2.46685 12.7562 2.89268 13.1812 3.40935 13.6979L4.29351 12.8146ZM4.70518 8.79122C4.00018 8.98622 3.42018 9.14456 2.98601 9.31956C2.55268 9.49289 2.14185 9.72789 1.90018 10.1479L2.98435 10.7712C3.01268 10.7212 3.09768 10.6212 3.45101 10.4796C3.80435 10.3379 4.30268 10.1987 5.03685 9.99623L4.70518 8.79122ZM2.89018 11.1246C2.88946 11.0006 2.92167 10.8787 2.98351 10.7712L1.90018 10.1479C1.72776 10.4474 1.63804 10.7873 1.64018 11.1329L2.89018 11.1246ZM6.84018 17.1321C7.36018 17.6521 7.78768 18.0821 8.15518 18.3746C8.52268 18.6679 8.93185 18.9096 9.42018 18.9104L9.42185 17.6604C9.36351 17.6604 9.23435 17.6362 8.93435 17.3971C8.63435 17.1587 8.26602 16.7921 7.72435 16.2496L6.84018 17.1321ZM10.5485 15.5012C10.3443 16.2412 10.2052 16.7429 10.0627 17.0987C9.91935 17.4554 9.81851 17.5404 9.76851 17.5687L10.3877 18.6546C10.8118 18.4129 11.0477 17.9996 11.2227 17.5637C11.3977 17.1271 11.5577 16.5429 11.7535 15.8329L10.5485 15.5012ZM9.42018 18.9104C9.75935 18.9104 10.0927 18.8229 10.3877 18.6546L9.76851 17.5687C9.66288 17.6289 9.5434 17.6605 9.42185 17.6604L9.42018 18.9104ZM15.451 7.63789C16.3377 8.52456 16.951 9.14039 17.326 9.64873C17.696 10.1471 17.7385 10.4129 17.6935 10.6212L18.9152 10.8854C19.0735 10.1537 18.7818 9.51289 18.331 8.90456C17.886 8.30456 17.1927 7.61206 16.3352 6.75456L15.451 7.63789ZM14.8593 13.5796C15.9935 13.1537 16.9118 12.8104 17.5643 12.4479C18.2268 12.0812 18.7568 11.6179 18.9152 10.8854L17.6935 10.6212C17.6485 10.8296 17.5002 11.0546 16.9577 11.3546C16.4052 11.6621 15.5927 11.9687 14.4193 12.4096L14.8593 13.5796ZM13.7668 4.18289C12.9035 3.31872 12.2068 2.61956 11.6043 2.17122C10.9927 1.71789 10.3477 1.42372 9.61268 1.58622L9.88268 2.80622C10.091 2.76039 10.3568 2.80206 10.8585 3.17539C11.3693 3.55456 11.9902 4.17206 12.8827 5.06622L13.7668 4.18289ZM8.10851 6.11956C8.54351 4.93372 8.84685 4.11122 9.15102 3.55289C9.45101 3.00289 9.67435 2.85289 9.88268 2.80622L9.61351 1.58622C8.87852 1.74789 8.41768 2.28622 8.05351 2.95456C7.69435 3.61456 7.35601 4.54289 6.93518 5.68956L8.10851 6.11956ZM2.10851 19.2746L5.98768 15.3929L5.10351 14.5096L1.22435 18.3912L2.10851 19.2746Z" fill="#1428A0"/>
</svg>
