<svg width="25" height="24" viewBox="0 0 25 24" fill="none" xmlns="http://www.w3.org/2000/svg">
<path fill-rule="evenodd" clip-rule="evenodd" d="M13.97 5.46934C14.1106 5.32889 14.3012 5.25 14.5 5.25C14.6988 5.25 14.8894 5.32889 15.03 5.46934L21.03 11.4693C21.1705 11.61 21.2493 11.8006 21.2493 11.9993C21.2493 12.1981 21.1705 12.3887 21.03 12.5293L15.03 18.5293C14.9613 18.603 14.8785 18.6621 14.7865 18.7031C14.6945 18.7441 14.5952 18.7662 14.4945 18.7679C14.3938 18.7697 14.2938 18.7512 14.2004 18.7135C14.107 18.6757 14.0222 18.6196 13.951 18.5484C13.8797 18.4772 13.8236 18.3923 13.7859 18.2989C13.7482 18.2055 13.7296 18.1055 13.7314 18.0048C13.7332 17.9041 13.7552 17.8048 13.7962 17.7128C13.8372 17.6208 13.8963 17.538 13.97 17.4693L18.69 12.7493H4.5C4.30109 12.7493 4.11032 12.6703 3.96967 12.5297C3.82902 12.389 3.75 12.1983 3.75 11.9993C3.75 11.8004 3.82902 11.6097 3.96967 11.469C4.11032 11.3284 4.30109 11.2493 4.5 11.2493H18.69L13.97 6.52934C13.8295 6.38871 13.7507 6.19809 13.7507 5.99934C13.7507 5.80059 13.8295 5.60997 13.97 5.46934Z" fill="#27397D"/>
</svg>
